# xmcd
#
# Track frame offsets:
#	150
#	18859
#	32744
#	45042
#	59520
#	80147
#	92233
#	107902
#	120640
#	136288
#	157056
#	174174
#	181808
#	189866
#
# Disc length: 2677 seconds
#
# Revision: 0
# Processed by: cddbd v1.5.1PL0 Copyright (c) Steve Scherf et al.
# Submitted via: dBpowerAMP V4.0
#
DISCID=ac0a730e
DTITLE=聖經-舊約 - Disc 62
DYEAR=1900
DGENRE=
TTITLE0=阿摩司書第1章
TTITLE1=阿摩司書第2章
TTITLE2=阿摩司書第3章
TTITLE3=阿摩司書第4章
TTITLE4=阿摩司書第5章
TTITLE5=阿摩司書第6章
TTITLE6=阿摩司書第7章
TTITLE7=阿摩司書第8章
TTITLE8=阿摩司書第9章
TTITLE9=俄巴底亞書1章
TTITLE10=約拿書第1章
TTITLE11=約拿書第2章
TTITLE12=約拿書第3章
TTITLE13=約拿書第4章
EXTD=
EXTT0=
EXTT1=
EXTT2=
EXTT3=
EXTT4=
EXTT5=
EXTT6=
EXTT7=
EXTT8=
EXTT9=
EXTT10=
EXTT11=
EXTT12=
EXTT13=
PLAYORDER=
